<svg width="364" height="412" viewBox="0 0 364 412" fill="none" xmlns="http://www.w3.org/2000/svg">
<path d="M363.367 0.620117L330.321 370.819L181.778 412L33.6438 370.877L0.632812 0.620117H363.367Z" fill="#004CE8"/>
<path d="M302.03 347.247L330.27 30.8945H182V380.524L302.03 347.247Z" fill="#0065F4"/>
<path d="M76.3098 168.217L80.3798 213.627H182L201.533 190.922L182 168.217H76.3098ZM182 76.3047H68.1318L72.2598 121.716H182L201.533 99.0097L182 76.3047ZM182 333.399L201.533 309.318L182 286.153L181.801 286.206L131.227 272.55L127.994 236.333H82.4088L88.7708 307.634L181.791 333.457L182 333.399Z" fill="#EBEBEB"/>
<path d="M237.761 213.627L232.49 272.521L181.843 286.191V333.435L274.937 307.634L275.62 299.962L286.291 180.411L287.399 168.217L295.597 76.3047H181.843V121.716H245.831L241.699 168.217H181.843V213.627H237.761Z" fill="white"/>
</svg>
