<svg width="364" height="412" viewBox="0 0 364 412" fill="none" xmlns="http://www.w3.org/2000/svg">
<path d="M33.6001 371L0.600098 0.599609H363.4L330.4 370.8L181.7 412" fill="#FF4C1E"/>
<path d="M182 380.5V31H330.3L302 347L182 380.5Z" fill="#FF651E"/>
<path d="M68 76.2998H182L198.951 98.9998L182 121.7H117.8L122 168.2H182L198.951 191.749L182 213.5H80.4L68 76.2998ZM82.4 236.3H128L131.2 272.6L182 286.2L201.127 308.86L182 333.6L88.8 307.6L82.4 236.3Z" fill="#EBEBEB"/>
<path d="M295.6 76.2998H181.8V121.7H291.4L295.6 76.2998ZM287.3 168.2H181.8V213.6H237.8L232.5 272.6L181.8 286.2V333.4L274.8 307.6L287.3 168.2Z" fill="white"/>
</svg>
