<svg width="512" height="310" viewBox="0 0 512 310" fill="none" xmlns="http://www.w3.org/2000/svg">
<path d="M19.4206 25.8417L244.193 178.559C251.365 183.414 260.634 183.414 267.752 178.559L492.524 25.8417C503.779 18.2279 498.372 0.62793 484.8 0.62793H27.1447C13.5723 0.62793 8.16543 18.1728 19.4206 25.8417ZM490.427 49.9521L353.599 142.918L488.607 273.345C497.379 281.787 512 275.608 512 263.414V61.3728C511.944 50.2831 499.586 43.7728 490.427 49.9521ZM23.3378 273.345L158.345 142.918L21.5172 49.9521C12.3585 43.7176 -8.84427e-05 50.2831 -8.84427e-05 61.3728V263.414C-0.0552609 275.608 14.5654 281.787 23.3378 273.345Z" fill="white"/>
<path d="M463.944 309.372C476.358 309.372 482.427 294.256 473.544 285.648L337.268 154.007L276.91 195C270.565 199.303 263.283 201.455 256 201.455C248.717 201.455 241.434 199.303 235.09 195L174.676 154.007L38.3999 285.648C29.462 294.256 35.5861 309.372 47.9999 309.372H463.944Z" fill="white"/>
</svg>
