<svg width="450" height="418" viewBox="0 0 450 418" fill="none" xmlns="http://www.w3.org/2000/svg">
<path d="M224.831 160.893C198.374 160.893 176.754 182.512 176.754 208.969C176.754 235.426 198.374 257.046 224.831 257.046C251.288 257.046 272.907 235.426 272.907 208.969C272.907 182.512 251.288 160.893 224.831 160.893Z" fill="#26D9FD"/>
<path d="M0.473633 208.969C0.473633 223.785 7.91189 237.482 19.9159 249.063C31.9199 260.613 48.5804 270.47 68.8391 278.695C109.296 295.204 164.206 305.122 224.831 305.122C285.456 305.122 340.335 295.204 380.853 278.695C401.051 270.47 417.742 260.613 429.746 249.063C441.72 237.482 449.188 223.785 449.188 208.969C449.188 194.152 441.72 180.425 429.746 168.874C417.742 157.324 401.051 147.467 380.823 139.242C340.366 122.733 285.456 112.815 224.801 112.815C164.146 112.815 109.296 122.733 68.8391 139.212C48.5804 147.467 31.9199 157.324 19.9159 168.874C7.91189 180.425 0.473633 194.152 0.473633 208.969ZM16.4991 208.969C16.4991 199.474 21.1556 189.98 31.0733 180.425C40.9607 170.9 55.9582 161.799 74.8864 154.089C112.713 138.668 165.96 128.871 224.831 128.871C283.702 128.871 336.949 138.668 374.775 154.089C393.673 161.799 408.701 170.9 418.588 180.425C428.476 189.98 433.132 199.474 433.132 208.969C433.132 218.463 428.476 227.957 418.588 237.482C408.701 247.006 393.673 256.138 374.745 263.848C336.949 279.269 283.672 289.066 224.831 289.066C165.99 289.066 112.713 279.269 74.8562 263.848C55.9582 256.138 40.9607 247.006 31.0733 237.482C21.1556 227.957 16.4991 218.463 16.4991 208.969Z" fill="#26D9FD"/>
<path d="M341.787 411.344C354.698 403.905 362.65 390.269 366.339 373.699C370.028 357.129 369.846 337.233 366.43 314.918C359.536 270.228 339.489 215.772 307.861 161.074C276.233 106.375 239.072 61.806 203.786 33.5044C186.158 19.3535 168.983 9.25445 152.776 4.17466C136.569 -0.905121 120.786 -0.84465 107.875 6.59361C94.9636 14.0319 87.0113 27.6687 83.3224 44.2082C79.6335 60.778 79.8149 80.704 83.2317 103.019C90.1257 147.709 110.203 202.165 141.8 256.864C173.398 311.562 210.589 356.131 245.876 384.433C263.504 398.553 280.678 408.683 296.885 413.763C313.092 418.842 328.876 418.782 341.787 411.344ZM333.744 397.435C325.67 402.121 315.088 402.666 301.693 398.463C288.237 394.23 272.484 385.219 255.914 371.915C222.775 345.367 186.46 302.068 155.709 248.851C124.928 195.604 105.546 142.538 99.106 100.6C95.8707 79.6155 95.9009 61.4734 98.9851 47.7459C102.039 34.0184 107.814 25.159 115.918 20.5025C123.991 15.8461 134.544 15.2716 147.969 19.4745C161.394 23.7076 177.177 32.7182 193.747 45.9922C226.857 72.5703 263.171 115.839 293.952 169.116C324.703 222.333 344.085 275.399 350.555 317.337C353.791 338.322 353.73 356.494 350.646 370.191C347.592 383.919 341.847 392.778 333.744 397.435Z" fill="#26D9FD"/>
<path d="M107.875 411.344C94.9638 403.906 87.0115 390.269 83.3226 373.699C79.6035 357.159 79.7849 337.264 83.2319 314.919C90.1259 270.259 110.173 215.742 141.801 161.074C173.398 106.375 210.589 61.776 245.876 33.4743C263.504 19.3537 280.648 9.2546 296.885 4.14458C313.092 -0.904966 328.876 -0.84449 341.787 6.59377C354.698 14.032 362.65 27.6688 366.339 44.2084C370.028 60.7781 369.847 80.674 366.4 103.019C359.536 147.679 339.489 202.165 307.861 256.834C276.234 311.562 239.042 356.162 203.756 384.433C186.128 398.584 168.984 408.683 152.777 413.763C136.57 418.842 120.786 418.782 107.875 411.344ZM115.918 397.435C123.991 402.122 134.544 402.666 147.969 398.463C161.394 394.26 177.178 385.219 193.747 371.915C226.857 345.367 263.201 302.068 293.952 248.851C324.733 195.604 344.085 142.539 350.556 100.6C353.791 79.6157 353.761 61.4434 350.677 47.7158C347.623 34.0186 341.847 25.1592 333.744 20.5027C325.671 15.816 315.118 15.2717 301.693 19.4746C288.268 23.6776 272.484 32.7184 255.914 45.9923C222.775 72.5705 186.491 115.839 155.71 169.086C124.928 222.303 105.547 275.399 99.1062 317.338C95.8709 338.322 95.9011 356.494 98.9853 370.222C102.039 383.919 107.814 392.778 115.918 397.435Z" fill="#26D9FD"/>
</svg>
