<svg width="512" height="458" viewBox="0 0 512 458" fill="none" xmlns="http://www.w3.org/2000/svg">
<path d="M412.174 457.985C408.175 457.985 404.203 456.802 400.795 454.491L272.058 367.166L203.011 416.849C200.342 418.768 197.248 420.009 193.993 420.466C190.739 420.923 187.422 420.582 184.329 419.472C181.235 418.362 178.458 416.517 176.236 414.095C174.015 411.673 172.415 408.748 171.576 405.57L136.906 274.182L13.0276 226.815C9.21686 225.357 5.9348 222.783 3.61063 219.43C1.28646 216.076 0.02839 212.1 0.000947005 208.02C-0.0264959 203.94 1.17797 199.947 3.45682 196.562C5.73566 193.178 8.9828 190.56 12.7736 189.051L483.805 1.62432C487.207 0.18103 490.938 -0.305256 494.596 0.218007C498.253 0.741269 501.699 2.25418 504.559 4.59326C507.419 6.93234 509.586 10.0086 510.825 13.4897C512.064 16.9708 512.329 20.7243 511.589 24.3447L432.082 441.513C431.199 446.146 428.728 450.326 425.094 453.333C421.46 456.34 416.891 457.986 412.174 457.985ZM283.362 325.854L398.036 403.638L459.901 79.0352L236.462 294.041L282.821 325.49C283.008 325.606 283.186 325.73 283.362 325.854ZM187.9 308.557L203.254 366.736L236.335 342.932L193.018 313.548C191.029 312.202 189.296 310.512 187.9 308.557ZM76.0301 207.505L161.091 240.026C164.095 241.175 166.782 243.022 168.931 245.414C171.079 247.807 172.628 250.676 173.448 253.786L184.236 294.668C184.734 289.913 186.896 285.488 190.34 282.173L403.246 77.3057L76.0301 207.505Z" fill="white"/>
</svg>
