<svg width="512" height="464" viewBox="0 0 512 464" fill="none" xmlns="http://www.w3.org/2000/svg">
<path d="M512 54.9305C492.96 64.2462 472.672 70.4209 451.52 73.4191C473.28 58.928 489.888 36.1563 497.696 8.70892C477.408 22.2006 455.008 31.7305 431.136 37.0486C411.872 14.1699 384.416 0 354.464 0C296.352 0 249.568 52.6105 249.568 117.106C249.568 126.386 250.272 135.31 252 143.804C164.736 139.057 87.52 92.4074 35.648 21.344C26.592 38.8689 21.28 58.928 21.28 80.5218C21.28 121.068 40 157.01 67.904 177.819C51.04 177.462 34.496 172.001 20.48 163.399V164.684C20.48 221.578 56.864 268.834 104.576 279.721C96.032 282.326 86.72 283.575 77.056 283.575C70.336 283.575 63.552 283.147 57.184 281.577C70.784 327.941 109.376 362.027 155.264 363.134C119.552 394.293 74.208 413.067 25.12 413.067C16.512 413.067 8.256 412.639 0 411.461C46.496 444.905 101.6 464 161.024 464C354.176 464 459.776 285.538 459.776 130.848C459.776 125.673 459.616 120.676 459.392 115.714C480.224 99.2246 497.728 78.6302 512 54.9305Z" fill="white"/>
</svg>
